<svg width="30" height="21" viewBox="0 0 30 21" fill="none" xmlns="http://www.w3.org/2000/svg">
<mask id="path-1-inside-1_237_1510" fill="white">
<path d="M18.2986 7.98417H14.3703V0.5H18.2986C20.4185 0.5 22.1429 2.17833 22.1429 4.24167C22.1429 6.305 20.4185 7.98417 18.2986 7.98417ZM15.6298 6.75833H18.2986C19.7241 6.75833 20.8834 5.62917 20.8834 4.2425C20.8834 2.85583 19.7233 1.72667 18.2986 1.72667H15.6298V6.75833ZM15.6298 7.98417H11.7024C9.58242 7.98417 7.85803 6.30583 7.85803 4.2425C7.85803 2.17917 9.58242 0.5 11.7024 0.5H15.6306V7.98417H15.6298ZM11.7024 1.72583C10.2768 1.72583 9.11751 2.855 9.11751 4.24167C9.11751 5.62833 10.2768 6.75833 11.7024 6.75833H14.3712V1.72583H11.7024ZM15.6298 14.2417H11.7024C9.58242 14.2417 7.85803 12.5633 7.85803 10.5C7.85803 8.43667 9.58242 6.75833 11.7024 6.75833H15.6306V14.2417H15.6298ZM11.7024 7.98417C10.2768 7.98417 9.11751 9.11333 9.11751 10.5C9.11751 11.8867 10.2777 13.0158 11.7024 13.0158H14.3712V7.98417H11.7024ZM11.7229 20.5C9.59184 20.5 7.85718 18.8217 7.85718 16.7583C7.85718 14.695 9.58157 13.0167 11.7015 13.0167H15.6298V16.7175C15.6298 18.8033 13.8771 20.5 11.7229 20.5ZM11.7024 14.2417C11.0171 14.2425 10.3602 14.5079 9.8756 14.9795C9.39104 15.4511 9.11841 16.0905 9.11751 16.7575C9.11751 18.145 10.2862 19.2733 11.7238 19.2733C13.1836 19.2733 14.372 18.1267 14.372 16.7167V14.2417H11.7024ZM18.2986 14.2417H18.2146C16.0947 14.2417 14.3703 12.5633 14.3703 10.5C14.3703 8.43667 16.0947 6.75833 18.2146 6.75833H18.2986C20.4185 6.75833 22.1429 8.43667 22.1429 10.5C22.1429 12.5633 20.4185 14.2417 18.2986 14.2417ZM18.2155 7.98417C16.7899 7.98417 15.6306 9.11333 15.6306 10.5C15.6306 11.8867 16.7908 13.0158 18.2155 13.0158H18.2994C19.725 13.0158 20.8843 11.8867 20.8843 10.5C20.8843 9.11333 19.7233 7.98417 18.2986 7.98417H18.2155Z"/>
</mask>
<path d="M14.3703 7.98417H12.5468V9.8077H14.3703V7.98417ZM14.3703 0.5V-1.32353H12.5468V0.5H14.3703ZM15.6298 6.75833H13.8062V8.58186H15.6298V6.75833ZM15.6298 1.72667V-0.0968627H13.8062V1.72667H15.6298ZM15.6306 0.5H17.4542V-1.32353H15.6306V0.5ZM15.6306 7.98417V9.8077H17.4542V7.98417H15.6306ZM14.3712 6.75833V8.58186H16.1947V6.75833H14.3712ZM14.3712 1.72583H16.1947V-0.0976961H14.3712V1.72583ZM15.6306 6.75833H17.4542V4.9348H15.6306V6.75833ZM15.6306 14.2417V16.0652H17.4542V14.2417H15.6306ZM14.3712 13.0158V14.8394H16.1947V13.0158H14.3712ZM14.3712 7.98417H16.1947V6.16064H14.3712V7.98417ZM15.6298 13.0167H17.4533V11.1931H15.6298V13.0167ZM9.11751 16.7575L7.29398 16.755V16.7575H9.11751ZM14.372 14.2417H16.1955V12.4181H14.372V14.2417ZM18.2986 7.98417V6.16064H14.3703V7.98417V9.8077H18.2986V7.98417ZM14.3703 7.98417H16.1938V0.5H14.3703H12.5468V7.98417H14.3703ZM14.3703 0.5V2.32353H18.2986V0.5V-1.32353H14.3703V0.5ZM18.2986 0.5V2.32353C19.4582 2.32353 20.3194 3.23166 20.3194 4.24167H22.1429H23.9664C23.9664 1.125 21.3788 -1.32353 18.2986 -1.32353V0.5ZM22.1429 4.24167H20.3194C20.3194 5.25219 19.4577 6.16064 18.2986 6.16064V7.98417V9.8077C21.3793 9.8077 23.9664 7.35781 23.9664 4.24167H22.1429ZM15.6298 6.75833V8.58186H18.2986V6.75833V4.9348H15.6298V6.75833ZM18.2986 6.75833V8.58186C20.6848 8.58186 22.707 6.68211 22.707 4.2425H20.8834H19.0599C19.0599 4.57623 18.7635 4.9348 18.2986 4.9348V6.75833ZM20.8834 4.2425H22.707C22.707 1.8025 20.6835 -0.0968627 18.2986 -0.0968627V1.72667V3.5502C18.763 3.5502 19.0599 3.90916 19.0599 4.2425H20.8834ZM18.2986 1.72667V-0.0968627H15.6298V1.72667V3.5502H18.2986V1.72667ZM15.6298 1.72667H13.8062V6.75833H15.6298H17.4533V1.72667H15.6298ZM15.6298 7.98417V6.16064H11.7024V7.98417V9.8077H15.6298V7.98417ZM11.7024 7.98417V6.16064C10.5427 6.16064 9.68156 5.25251 9.68156 4.2425H7.85803H6.0345C6.0345 7.35916 8.62217 9.8077 11.7024 9.8077V7.98417ZM7.85803 4.2425H9.68156C9.68156 3.23197 10.5432 2.32353 11.7024 2.32353V0.5V-1.32353C8.62163 -1.32353 6.0345 1.12636 6.0345 4.2425H7.85803ZM11.7024 0.5V2.32353H15.6306V0.5V-1.32353H11.7024V0.5ZM15.6306 0.5H13.8071V7.98417H15.6306H17.4542V0.5H15.6306ZM15.6306 7.98417V6.16064H15.6298V7.98417V9.8077H15.6306V7.98417ZM11.7024 1.72583V-0.0976961C9.31615 -0.0976961 7.29398 1.80206 7.29398 4.24167H9.11751H10.941C10.941 3.90794 11.2375 3.54936 11.7024 3.54936V1.72583ZM9.11751 4.24167H7.29398C7.29398 6.6805 9.31535 8.58186 11.7024 8.58186V6.75833V4.9348C11.2383 4.9348 10.941 4.57617 10.941 4.24167H9.11751ZM11.7024 6.75833V8.58186H14.3712V6.75833V4.9348H11.7024V6.75833ZM14.3712 6.75833H16.1947V1.72583H14.3712H12.5476V6.75833H14.3712ZM14.3712 1.72583V-0.0976961H11.7024V1.72583V3.54936H14.3712V1.72583ZM15.6298 14.2417V12.4181H11.7024V14.2417V16.0652H15.6298V14.2417ZM11.7024 14.2417V12.4181C10.5427 12.4181 9.68156 11.51 9.68156 10.5H7.85803H6.0345C6.0345 13.6167 8.62217 16.0652 11.7024 16.0652V14.2417ZM7.85803 10.5H9.68156C9.68156 9.49 10.5427 8.58186 11.7024 8.58186V6.75833V4.9348C8.62217 4.9348 6.0345 7.38334 6.0345 10.5H7.85803ZM11.7024 6.75833V8.58186H15.6306V6.75833V4.9348H11.7024V6.75833ZM15.6306 6.75833H13.8071V14.2417H15.6306H17.4542V6.75833H15.6306ZM15.6306 14.2417V12.4181H15.6298V14.2417V16.0652H15.6306V14.2417ZM11.7024 7.98417V6.16064C9.31615 6.16064 7.29398 8.06039 7.29398 10.5H9.11751H10.941C10.941 10.1663 11.2375 9.8077 11.7024 9.8077V7.98417ZM9.11751 10.5H7.29398C7.29398 12.94 9.3174 14.8394 11.7024 14.8394V13.0158V11.1923C11.2379 11.1923 10.941 10.8333 10.941 10.5H9.11751ZM11.7024 13.0158V14.8394H14.3712V13.0158V11.1923H11.7024V13.0158ZM14.3712 13.0158H16.1947V7.98417H14.3712H12.5476V13.0158H14.3712ZM14.3712 7.98417V6.16064H11.7024V7.98417V9.8077H14.3712V7.98417ZM11.7229 20.5V18.6765C10.5422 18.6765 9.68071 17.7587 9.68071 16.7583H7.85718H6.03365C6.03365 19.8846 8.64148 22.3235 11.7229 22.3235V20.5ZM7.85718 16.7583H9.68071C9.68071 15.7483 10.5418 14.8402 11.7015 14.8402V13.0167V11.1931C8.62131 11.1931 6.03365 13.6417 6.03365 16.7583H7.85718ZM11.7015 13.0167V14.8402H15.6298V13.0167V11.1931H11.7015V13.0167ZM15.6298 13.0167H13.8062V16.7175H15.6298H17.4533V13.0167H15.6298ZM15.6298 16.7175H13.8062C13.8062 17.741 12.9261 18.6765 11.7229 18.6765V20.5V22.3235C14.8281 22.3235 17.4533 19.8656 17.4533 16.7175H15.6298ZM11.7024 14.2417L11.7 12.4181C10.5476 12.4196 9.43324 12.8654 8.60374 13.6727L9.8756 14.9795L11.1475 16.2863C11.2871 16.1504 11.4866 16.0655 11.7047 16.0652L11.7024 14.2417ZM9.8756 14.9795L8.60374 13.6727C7.77257 14.4817 7.29556 15.5891 7.29398 16.755L9.11751 16.7575L10.941 16.76C10.9413 16.5919 11.0095 16.4205 11.1475 16.2863L9.8756 14.9795ZM9.11751 16.7575H7.29398C7.29398 19.2122 9.34027 21.0969 11.7238 21.0969V19.2733V17.4498C11.2322 17.4498 10.941 17.0778 10.941 16.7575H9.11751ZM11.7238 19.2733V21.0969C14.1294 21.0969 16.1955 19.194 16.1955 16.7167H14.372H12.5485C12.5485 17.0593 12.2378 17.4498 11.7238 17.4498V19.2733ZM14.372 16.7167H16.1955V14.2417H14.372H12.5485V16.7167H14.372ZM14.372 14.2417V12.4181H11.7024V14.2417V16.0652H14.372V14.2417ZM18.2986 14.2417V12.4181H18.2146V14.2417V16.0652H18.2986V14.2417ZM18.2146 14.2417V12.4181C17.0549 12.4181 16.1938 11.51 16.1938 10.5H14.3703H12.5468C12.5468 13.6167 15.1344 16.0652 18.2146 16.0652V14.2417ZM14.3703 10.5H16.1938C16.1938 9.49 17.0549 8.58186 18.2146 8.58186V6.75833V4.9348C15.1344 4.9348 12.5468 7.38334 12.5468 10.5H14.3703ZM18.2146 6.75833V8.58186H18.2986V6.75833V4.9348H18.2146V6.75833ZM18.2986 6.75833V8.58186C19.4582 8.58186 20.3194 9.49 20.3194 10.5H22.1429H23.9664C23.9664 7.38334 21.3788 4.9348 18.2986 4.9348V6.75833ZM22.1429 10.5H20.3194C20.3194 11.51 19.4582 12.4181 18.2986 12.4181V14.2417V16.0652C21.3788 16.0652 23.9664 13.6167 23.9664 10.5H22.1429ZM18.2155 7.98417V6.16064C15.8293 6.16064 13.8071 8.06039 13.8071 10.5H15.6306H17.4542C17.4542 10.1663 17.7506 9.8077 18.2155 9.8077V7.98417ZM15.6306 10.5H13.8071C13.8071 12.94 15.8305 14.8394 18.2155 14.8394V13.0158V11.1923C17.751 11.1923 17.4542 10.8333 17.4542 10.5H15.6306ZM18.2155 13.0158V14.8394H18.2994V13.0158V11.1923H18.2155V13.0158ZM18.2994 13.0158V14.8394C20.6856 14.8394 22.7078 12.9396 22.7078 10.5H20.8843H19.0607C19.0607 10.8337 18.7643 11.1923 18.2994 11.1923V13.0158ZM20.8843 10.5H22.7078C22.7078 8.05923 20.6827 6.16064 18.2986 6.16064V7.98417V9.8077C18.7638 9.8077 19.0607 10.1674 19.0607 10.5H20.8843ZM18.2986 7.98417V6.16064H18.2155V7.98417V9.8077H18.2986V7.98417Z" fill="#565656" mask="url(#path-1-inside-1_237_1510)"/>
</svg>
