<svg width="50" height="50" viewBox="0 0 50 50" fill="none" xmlns="http://www.w3.org/2000/svg">
<rect width="50" height="50" rx="14.2857" fill="#0000FF"/>
<path d="M34.2962 18.0009L35.6238 18.1914C38.1457 18.6484 39.8427 20.7995 39.3319 23.3803C39.262 23.7335 39.1043 24.0599 39.0431 24.4071C39.7411 24.8475 40.3779 25.3656 40.6719 26.1622C40.7975 26.5031 40.8322 26.8602 40.9277 27.2074C40.9097 27.4693 40.9522 27.7593 40.9277 28.0173C40.641 31.0299 37.958 32.483 35.1747 32.6223C33.122 32.7252 30.9854 32.5394 28.9237 32.6231C28.8097 32.6347 28.7304 32.5817 28.6704 32.4916L28.646 18.3178C28.6344 18.1696 28.7051 18.0803 28.8191 18H34.2958L34.2962 18.0009ZM32.4017 21.3347C32.211 21.3774 32.1081 21.5901 32.1128 21.7717C32.1381 24.2324 32.0704 26.7034 32.1471 29.1578C32.2037 29.2492 32.271 29.3436 32.3905 29.3414C33.8651 29.2223 36.9038 29.8561 37.4755 27.9669C37.8727 26.6543 36.8678 25.9085 35.7511 25.5672C35.4957 25.4891 34.4779 25.3109 34.3583 25.2076C34.0879 24.9735 34.7719 24.7317 34.9347 24.6262C35.7125 24.1222 36.387 23.5221 36.0523 22.4965C35.7656 21.62 34.7187 21.3766 33.8917 21.324C33.5857 21.3048 32.6596 21.277 32.4012 21.3347H32.4017Z" fill="#FFF8F6"/>
<path d="M17.5246 18.0009L17.6643 18.1388C17.6395 21.9357 17.8057 25.7756 17.6977 29.5751C17.6613 30.8552 17.5713 32.4083 17.1291 33.6119C16.3907 35.6204 13.8007 37.4447 11.7917 38.0132C11.1768 38.1875 9.80504 38.4651 9.23767 38.1708C8.56445 37.8218 9.50764 37.4976 9.77719 37.3276C12.4941 35.6131 14.1002 32.9584 14.1041 29.7032L14.1024 20.7717H10.9998C10.678 20.7717 10.9822 20.0272 11.0435 19.8773C11.4485 18.8816 12.1903 18.2392 13.2457 18.0009H17.5242H17.5246Z" fill="#FFF8F6"/>
<path d="M24.8404 18.0009L24.9711 18.2332L24.969 20.3032C23.449 20.4894 22.3442 21.7913 21.3325 22.8177L21.3303 18.2764C21.3397 18.1619 21.4126 18.0654 21.5034 18.0009H24.8409H24.8404Z" fill="#FBAD19"/>
<path d="M24.9692 20.345V29.4879C24.9692 29.9108 24.4391 30.9 24.155 31.2341C23.6665 31.8086 22.4803 32.5206 21.7274 32.6103C21.397 32.6496 21.3743 32.4582 21.3306 32.1751C21.4527 29.9334 21.1741 27.5316 21.3306 25.3088C21.4274 23.9334 22.8587 21.8028 23.8992 20.9199C24.1944 20.6692 24.5801 20.4035 24.9692 20.345Z" fill="#FFF8F6"/>
</svg>
