<svg width="12" height="23" viewBox="0 0 12 23" fill="none" xmlns="http://www.w3.org/2000/svg">
<path d="M11.0876 10.2085C11.0373 9.62801 10.9308 9.04901 10.7823 8.48576C10.3136 6.70901 9.53283 5.00801 8.43183 3.53351C8.13183 3.13151 7.80783 2.74751 7.46133 2.38451C7.10433 2.01026 6.70833 1.66676 6.45933 1.20101C6.30183 0.906258 6.15183 0.607758 5.99883 0.310758C5.99658 0.403758 5.99058 0.496758 5.99058 0.589008C5.99058 0.496008 5.99733 0.403008 5.99883 0.310008C5.97033 0.238758 5.94183 0.166758 5.90133 0.0647583C5.88483 0.121008 5.87433 0.140508 5.87433 0.161508C5.86158 0.645258 5.58708 0.973758 5.24583 1.28051C4.86183 1.62551 4.50408 1.99976 4.13508 2.36126C4.14783 2.37776 4.16208 2.39426 4.17633 2.41076C4.16208 2.39426 4.14783 2.37851 4.13508 2.36126C3.03783 3.80426 2.07108 5.34701 1.50183 7.07876C1.33608 7.58276 1.20558 8.09801 1.11408 8.62076C0.919829 9.73151 0.829829 10.8108 0.892079 11.9358C0.926579 12.5575 1.03533 13.1695 1.19733 13.7718C1.78608 15.9595 2.98158 17.7738 4.61583 19.3158C4.91958 19.6023 5.24733 19.8625 5.56458 20.1355C5.61108 20.296 5.65833 20.4565 5.70483 20.617C5.74833 20.866 5.79183 21.115 5.83533 21.364C5.85633 21.6235 5.87658 21.8838 5.89758 22.1433C5.89683 22.3015 5.89008 22.4605 5.89983 22.618C5.90208 22.6585 5.95533 22.696 5.98458 22.735C5.98533 22.7335 5.98608 22.732 5.98758 22.7305C5.98683 22.732 5.98608 22.7335 5.98458 22.735C6.07308 22.7658 6.16083 22.7973 6.24933 22.828C6.32883 22.8588 6.40833 22.8903 6.52458 22.9353C6.50733 22.6758 6.49233 22.459 6.47733 22.2423C6.47658 22.015 6.47583 21.787 6.47508 21.5598C6.47058 21.565 6.46458 21.5703 6.45933 21.5755C6.46458 21.5703 6.46983 21.565 6.47508 21.5598C6.50658 21.2133 6.53883 20.8668 6.57033 20.5203C6.59358 20.4445 6.61608 20.3695 6.63933 20.2938C6.70533 20.1768 6.77058 20.0605 6.83658 19.9435C7.08033 19.747 7.34208 19.5693 7.56483 19.351C7.96683 18.9558 8.36808 18.556 8.72733 18.1233C9.19383 17.5623 9.59583 16.9495 9.91833 16.2925C10.8356 14.4243 11.2601 12.3408 11.0913 10.2633C11.0898 10.2453 11.0883 10.2265 11.0868 10.2078L11.0876 10.2085Z" fill="#565656"/>
</svg>
