<svg width="24" height="25" viewBox="0 0 24 25" fill="none" xmlns="http://www.w3.org/2000/svg">
<path d="M14.131 0.546997C13.958 0.546997 13.797 0.583997 13.648 0.633997C13.964 0.843997 14.138 1.124 14.224 1.44C14.231 1.483 14.243 1.514 14.249 1.557C14.2565 1.59391 14.2608 1.63137 14.262 1.669C14.286 2.214 14.119 2.283 14.002 2.605C13.822 3.02 13.872 3.466 14.088 3.825C14.1078 3.87314 14.1326 3.91906 14.162 3.962C13.927 2.394 15.235 2.159 15.476 1.669C15.495 1.241 15.142 0.955997 14.863 0.757997C14.6438 0.620226 14.39 0.547413 14.131 0.547997V0.546997ZM16.102 0.899997C16.078 1.043 16.096 1.006 16.09 1.08C16.084 1.13 16.084 1.192 16.078 1.241C16.065 1.291 16.053 1.341 16.034 1.39C16.022 1.44 16.004 1.49 15.984 1.539L15.917 1.681C15.897 1.706 15.886 1.731 15.867 1.756L15.83 1.811C15.8005 1.85343 15.7695 1.89479 15.737 1.935C15.7 1.973 15.669 2.016 15.625 2.047V2.053C15.588 2.084 15.551 2.121 15.507 2.153C15.377 2.252 15.229 2.326 15.092 2.419C15.049 2.449 15.005 2.475 14.968 2.512C14.926 2.54159 14.8865 2.57471 14.85 2.611C14.807 2.648 14.776 2.685 14.739 2.729C14.708 2.766 14.671 2.809 14.646 2.853C14.6149 2.89487 14.5859 2.93826 14.559 2.983C14.534 3.033 14.516 3.076 14.491 3.125C14.472 3.175 14.454 3.218 14.441 3.268C14.4246 3.31907 14.4103 3.37078 14.398 3.423C14.392 3.448 14.392 3.479 14.386 3.503C14.379 3.528 14.379 3.553 14.373 3.578C14.373 3.628 14.367 3.683 14.367 3.733C14.367 3.77 14.367 3.807 14.373 3.844C14.373 3.894 14.379 3.944 14.392 3.999C14.398 4.049 14.41 4.099 14.422 4.149C14.442 4.198 14.454 4.247 14.472 4.297C14.485 4.327 14.503 4.359 14.516 4.384L13.09 3.832C12.849 3.764 12.613 3.702 12.371 3.646L11.981 3.553C11.609 3.479 11.231 3.423 10.853 3.386C10.84 3.386 10.834 3.38 10.822 3.38C10.1833 3.31601 9.54022 3.30765 8.90004 3.355C8.52204 3.38 8.14404 3.429 7.76604 3.491C7.48513 3.5394 7.20596 3.59743 6.92904 3.665L6.65004 3.739C6.55804 3.776 6.47004 3.819 6.38404 3.857L6.17904 3.95C6.16704 3.956 6.15504 3.956 6.14904 3.962C6.08604 3.993 6.03104 4.018 5.97504 4.049C5.89452 4.08451 5.81576 4.12389 5.73904 4.167C5.69604 4.185 5.65304 4.21 5.61504 4.229C5.59728 4.24002 5.57892 4.25003 5.56004 4.259C5.50404 4.291 5.44804 4.322 5.39804 4.353C5.347 4.38121 5.29759 4.41226 5.25004 4.446C5.20604 4.476 5.16304 4.501 5.12604 4.532C5.12004 4.539 5.11304 4.539 5.10704 4.545C5.07004 4.57 5.02704 4.601 4.98904 4.632L4.97704 4.644L4.88404 4.718C4.87204 4.725 4.85904 4.737 4.84704 4.743C4.81604 4.768 4.78504 4.799 4.75404 4.823C4.74804 4.836 4.73504 4.843 4.72904 4.848C4.69204 4.886 4.65504 4.917 4.61804 4.954C4.61104 4.954 4.61104 4.96 4.60504 4.966C4.5665 4.99968 4.52946 5.03505 4.49404 5.072C4.48704 5.078 4.48704 5.084 4.48104 5.084C4.44849 5.11586 4.41745 5.14923 4.38804 5.184C4.37604 5.196 4.35804 5.208 4.34504 5.22C4.31183 5.25928 4.27644 5.29668 4.23904 5.332C4.23304 5.344 4.22104 5.351 4.21504 5.362C4.16504 5.412 4.12204 5.462 4.07204 5.512L4.05404 5.53C3.95404 5.636 3.84904 5.741 3.73704 5.834C3.62604 5.934 3.50804 6.026 3.39004 6.107C3.15311 6.27623 2.89742 6.4175 2.62804 6.528C2.49804 6.584 2.36104 6.634 2.22504 6.677C1.96504 6.733 1.69804 6.838 1.46904 6.857C1.41904 6.857 1.36404 6.869 1.31404 6.875L1.15904 6.912L1.01004 6.968C0.960037 6.987 0.911037 7.012 0.862037 7.036C0.818037 7.067 0.769037 7.092 0.725037 7.123C0.680916 7.15493 0.639448 7.19038 0.601037 7.229C0.558037 7.259 0.514037 7.303 0.477037 7.34C0.440037 7.383 0.403037 7.42 0.372037 7.464C0.341037 7.514 0.304037 7.557 0.279037 7.607C0.246465 7.65205 0.217381 7.69952 0.192037 7.749C0.167037 7.805 0.142037 7.855 0.124037 7.91C0.105037 7.96 0.0870374 8.016 0.0680374 8.071C0.0560374 8.121 0.0430374 8.171 0.0380374 8.221C0.0380374 8.226 0.0310374 8.233 0.0310374 8.239C0.0190374 8.295 0.0190374 8.369 0.0120374 8.406C0.00603739 8.45 3.73942e-05 8.486 3.73942e-05 8.53C-0.00111312 8.63784 0.0243013 8.7443 0.0740374 8.84V8.846C0.0930374 8.883 0.118037 8.921 0.143037 8.958C0.167037 8.995 0.193037 9.032 0.223037 9.069C0.254037 9.1 0.291037 9.138 0.329037 9.169C0.365171 9.20524 0.404311 9.23836 0.446037 9.268C0.595037 9.398 0.632037 9.441 0.824037 9.54C0.855037 9.559 0.886037 9.571 0.924037 9.59C0.930037 9.59 0.936037 9.596 0.942037 9.596C0.942037 9.609 0.942037 9.615 0.948037 9.627C0.962513 9.72921 0.989377 9.82928 1.02804 9.925C1.04804 9.962 1.06004 9.999 1.07804 10.036C1.08504 10.049 1.09104 10.061 1.09804 10.067C1.12204 10.117 1.14704 10.16 1.17104 10.204L1.26404 10.334C1.29504 10.371 1.33304 10.414 1.37004 10.452C1.40704 10.489 1.44404 10.52 1.48804 10.557C1.48804 10.557 1.49404 10.563 1.50004 10.563C1.53704 10.594 1.57404 10.625 1.61204 10.65C1.65516 10.6803 1.70064 10.707 1.74804 10.73C1.79104 10.755 1.84104 10.78 1.89004 10.799C1.93 10.817 1.9715 10.8314 2.01404 10.842C2.02104 10.848 2.02704 10.848 2.03904 10.854C2.06404 10.861 2.09504 10.867 2.11904 10.873C2.10104 11.208 2.09504 11.523 2.14504 11.635C2.20004 11.759 2.47304 11.381 2.74504 10.947C2.70904 11.375 2.68404 11.877 2.74504 12.026C2.81404 12.181 3.18504 11.697 3.50804 11.164C7.90304 10.148 11.913 13.184 12.334 17.474C12.254 16.804 11.429 16.433 11.051 16.526C10.865 16.984 10.549 17.573 10.041 17.939C10.084 17.529 10.066 17.109 9.97904 16.699C9.84022 17.2697 9.5777 17.8029 9.21004 18.261C8.62204 18.304 8.03304 18.019 7.72304 17.591C7.69804 17.573 7.69204 17.536 7.67304 17.511C7.65504 17.468 7.63604 17.424 7.62304 17.381C7.60505 17.3395 7.59261 17.2958 7.58604 17.251C7.58004 17.207 7.58004 17.164 7.58004 17.114V17.021C7.58744 16.977 7.59779 16.9336 7.61104 16.891C7.62404 16.848 7.63604 16.805 7.65504 16.761C7.67904 16.718 7.69804 16.674 7.72904 16.631C7.83404 16.333 7.83404 16.091 7.64204 15.949C7.60475 15.9247 7.56524 15.9039 7.52404 15.887C7.50004 15.881 7.46904 15.869 7.44404 15.862L7.39404 15.844C7.35159 15.8303 7.30812 15.8199 7.26404 15.813C7.2218 15.8006 7.17804 15.7942 7.13404 15.794C7.08903 15.7869 7.04359 15.7829 6.99804 15.782C6.96704 15.782 6.93604 15.788 6.90504 15.788C6.8587 15.7877 6.81256 15.7941 6.76804 15.807C6.72504 15.813 6.68204 15.819 6.63804 15.831C6.59381 15.8429 6.55038 15.8576 6.50804 15.875C6.46504 15.893 6.42804 15.912 6.38404 15.931C6.34704 15.949 6.31004 15.974 6.26604 15.993C4.82204 16.935 5.68404 19.141 6.66904 19.78C6.29704 19.848 5.91904 19.928 5.81404 20.009L5.80104 20.021C6.06804 20.182 6.34704 20.319 6.63804 20.437C7.03504 20.567 7.45604 20.684 7.64204 20.734V20.74C8.15557 20.8455 8.68071 20.8831 9.20404 20.852C11.95 20.66 14.2 18.571 14.609 15.819L14.646 15.98C14.665 16.092 14.689 16.21 14.702 16.327V16.333C14.714 16.389 14.72 16.445 14.727 16.495V16.519C14.733 16.575 14.739 16.631 14.739 16.681C14.745 16.749 14.751 16.817 14.751 16.885V16.985C14.751 17.015 14.758 17.052 14.758 17.083C14.758 17.121 14.751 17.158 14.751 17.195V17.282C14.751 17.325 14.745 17.362 14.745 17.406C14.745 17.431 14.745 17.456 14.739 17.486C14.739 17.53 14.733 17.573 14.733 17.623C14.727 17.641 14.727 17.66 14.727 17.678L14.707 17.821C14.707 17.84 14.707 17.858 14.702 17.877C14.695 17.939 14.683 17.995 14.677 18.057V18.069L14.64 18.243V18.261L14.603 18.428C14.603 18.435 14.596 18.448 14.596 18.453C14.5846 18.5097 14.5703 18.5658 14.553 18.621V18.639C14.534 18.701 14.516 18.757 14.503 18.813C14.497 18.819 14.497 18.825 14.497 18.825L14.441 19.011C14.417 19.073 14.398 19.129 14.373 19.191C14.348 19.253 14.33 19.315 14.305 19.371C14.28 19.433 14.255 19.488 14.231 19.551H14.224C14.2 19.606 14.174 19.668 14.144 19.724C14.1388 19.7388 14.1325 19.7532 14.125 19.767C14.119 19.773 14.119 19.78 14.113 19.786C13.7031 20.6066 13.1065 21.3197 12.371 21.868C12.321 21.899 12.272 21.937 12.222 21.974C12.21 21.986 12.192 21.992 12.179 22.004C12.1347 22.0368 12.0894 22.0681 12.043 22.098L12.061 22.135H12.068L12.328 22.098H12.334C12.495 22.073 12.656 22.042 12.817 22.011C12.861 22.005 12.91 21.992 12.954 21.98L13.041 21.961C13.084 21.955 13.127 21.943 13.171 21.937C13.208 21.924 13.245 21.917 13.282 21.906C13.902 21.756 14.503 21.552 15.08 21.311C14.0839 22.6678 12.759 23.749 11.23 24.453C11.944 24.403 12.656 24.286 13.344 24.087C15.8342 23.3548 17.9375 21.6743 19.201 19.407C18.9458 20.8423 18.3766 22.2034 17.534 23.393C18.1348 22.9968 18.6898 22.5353 19.189 22.017C20.5764 20.5686 21.4872 18.7303 21.799 16.749C22.009 17.729 22.071 18.739 21.979 19.736C26.453 13.495 22.35 7.024 20.633 5.32C20.627 5.307 20.621 5.301 20.621 5.289C20.615 5.295 20.615 5.295 20.615 5.301C20.615 5.295 20.615 5.295 20.608 5.289C20.608 5.363 20.602 5.437 20.596 5.512C20.5789 5.65083 20.5582 5.78921 20.534 5.927C20.504 6.063 20.466 6.2 20.429 6.337C20.385 6.467 20.336 6.603 20.279 6.733C20.2224 6.86139 20.1607 6.98749 20.094 7.111C19.9557 7.35396 19.796 7.5842 19.617 7.799C19.524 7.91 19.425 8.009 19.325 8.109C19.2666 8.16244 19.2066 8.21413 19.145 8.264L19.003 8.388C18.8924 8.47533 18.7765 8.55581 18.656 8.629C18.5376 8.70529 18.4154 8.77571 18.29 8.84C18.16 8.902 18.03 8.958 17.9 9.014C17.6353 9.1147 17.3613 9.18939 17.082 9.237C16.939 9.262 16.797 9.274 16.66 9.287C16.5612 9.29399 16.4621 9.29799 16.363 9.299C16.2221 9.29705 16.0813 9.28871 15.941 9.274C15.7995 9.26288 15.6588 9.24217 15.52 9.212C15.3795 9.18649 15.2408 9.15141 15.105 9.107H15.098C15.235 9.094 15.371 9.082 15.508 9.057C15.7871 9.00861 16.061 8.93395 16.326 8.834C16.462 8.784 16.592 8.722 16.716 8.66C16.846 8.598 16.964 8.53 17.088 8.456C17.206 8.376 17.323 8.295 17.435 8.208C17.547 8.121 17.652 8.028 17.751 7.929C17.856 7.836 17.949 7.731 18.042 7.625C18.135 7.514 18.222 7.402 18.302 7.291C18.315 7.272 18.328 7.247 18.34 7.229C18.402 7.129 18.464 7.03 18.52 6.931C18.6567 6.68432 18.7686 6.42472 18.854 6.156C18.898 6.026 18.929 5.89 18.96 5.753C18.985 5.611 19.01 5.475 19.022 5.338C19.034 5.196 19.047 5.053 19.047 4.917C19.047 4.817 19.04 4.718 19.034 4.619C19.0217 4.48018 19.005 4.34178 18.984 4.204C18.9599 4.06429 18.9292 3.9258 18.892 3.789C18.848 3.659 18.805 3.522 18.755 3.392C18.705 3.262 18.644 3.132 18.582 3.008C18.513 2.884 18.445 2.76 18.371 2.642C18.2919 2.52615 18.2092 2.41276 18.123 2.302C18.03 2.196 17.937 2.09 17.838 1.985C17.7859 1.93179 17.7322 1.88011 17.677 1.83C17.397 1.613 17.107 1.409 16.815 1.223C16.775 1.19986 16.7336 1.17916 16.691 1.161C16.5072 1.04843 16.3091 0.959987 16.102 0.899997Z" fill="#565656"/>
</svg>
