<svg width="24" height="23" viewBox="0 0 24 23" fill="none" xmlns="http://www.w3.org/2000/svg">
<path d="M12.1462 14.1112C13.3291 14.1112 14.2881 13.1522 14.2881 11.9692C14.2881 10.7862 13.3291 9.82721 12.1462 9.82721C10.9632 9.82721 10.0042 10.7862 10.0042 11.9692C10.0042 13.1522 10.9632 14.1112 12.1462 14.1112Z" fill="#565656"/>
<path d="M11.9999 7.63635C14.7679 7.63635 17.3974 8.0266 19.3964 8.71479C21.6165 9.47909 22.9708 10.6091 22.9708 11.4798C22.9708 12.4072 21.5082 13.6112 19.1335 14.3981C17.2429 15.0245 14.7134 15.3659 11.9999 15.3659C9.14935 15.3659 6.59133 15.0311 4.72268 14.3924C3.55282 13.9925 2.58672 13.4729 1.92452 12.9058C1.32948 12.3962 1.02906 11.8903 1.02906 11.4798C1.02906 10.6062 2.33149 9.49186 4.50375 8.7345C6.5036 8.03731 9.19741 7.63635 11.9999 7.63635ZM11.9999 6.61144C9.08853 6.61144 6.2819 7.02919 4.16634 7.76672C1.6263 8.65231 0.00415039 10.0401 0.00415039 11.4798C0.00415039 12.9666 1.74555 14.4579 4.39119 15.3622C6.37982 16.042 9.0454 16.3908 11.9999 16.3908C14.8157 16.3908 17.4516 16.035 19.4558 15.371C22.2062 14.4597 23.9957 12.9865 23.9957 11.4798C23.9957 10.0349 22.3212 8.63774 19.73 7.7457C17.617 7.01827 14.8759 6.61144 11.9999 6.61144ZM8.65198 9.5704C10.0348 7.17259 11.6865 5.08972 13.2813 3.70181C15.0525 2.1604 16.7079 1.55177 17.4622 1.98672C18.2656 2.45002 18.578 4.31853 18.0732 6.76875C17.6713 8.71945 16.7034 11.0812 15.3479 13.4318C13.9238 15.9012 12.3559 17.9499 10.869 19.2496C9.93822 20.0632 9.00543 20.6405 8.18336 20.9309C7.44466 21.1918 6.85629 21.1993 6.50066 20.9942C5.7439 20.5577 5.42928 18.8728 5.85842 16.6127C6.25348 14.5321 7.25187 11.9982 8.65198 9.5704ZM7.76412 9.05838C6.30963 11.5805 5.26941 14.2205 4.85149 16.4215C4.3497 19.0643 4.74156 21.1628 5.98865 21.882C7.27673 22.6248 9.43854 21.8613 11.5436 20.0212C13.1259 18.6381 14.7597 16.5033 16.2357 13.9439C17.6424 11.5046 18.651 9.04349 19.077 6.97555C19.6616 4.13776 19.2794 1.85156 17.9742 1.09885C16.7226 0.37709 14.6757 1.12964 12.6084 2.92867C10.9227 4.39573 9.20085 6.56707 7.76412 9.05838ZM8.65518 13.4374C7.26839 11.0419 6.28873 8.57075 5.88277 6.49591C5.4319 4.19161 5.73136 2.45342 6.48488 2.01721C7.28753 1.55253 9.06236 2.21505 10.933 3.87605C12.4223 5.1984 13.9851 7.21643 15.3446 9.56482C16.7728 12.0318 17.7647 14.4133 18.1482 16.3506C18.3882 17.5634 18.4225 18.6598 18.2635 19.517C18.1206 20.2873 17.8333 20.8008 17.478 21.0064C16.7219 21.4441 15.105 20.8752 13.3613 19.3747C11.756 17.9933 10.0594 15.8629 8.65518 13.4374ZM7.76819 13.9509C9.22692 16.4706 10.9946 18.6903 12.6928 20.1516C14.7317 21.9062 16.7456 22.6147 17.9915 21.8934C19.2783 21.1485 19.6965 18.8943 19.1536 16.1516C18.7455 14.0899 17.7119 11.6083 16.2316 9.05132C14.8208 6.61439 13.1923 4.51147 11.6135 3.10964C9.44696 1.18591 7.27537 0.37529 5.97138 1.13021C4.72097 1.85406 4.3507 4.00327 4.87693 6.69272C5.30604 8.88585 6.32731 11.462 7.76819 13.9509Z" fill="#565656"/>
</svg>
