<svg width="50" height="50" viewBox="0 0 50 50" fill="none" xmlns="http://www.w3.org/2000/svg">
<rect width="50" height="50" rx="14.2857" fill="url(#paint0_linear_339_828)"/>
<path d="M23.1241 14.592V39H19.5961V14.592H23.1241ZM11.7481 16.212V12.972H30.9361V16.212H11.7481ZM33.907 39V21.396H37.291V39H33.907ZM35.563 17.22C34.963 17.22 34.435 17.004 33.979 16.572C33.547 16.116 33.331 15.588 33.331 14.988C33.331 14.364 33.547 13.836 33.979 13.404C34.435 12.972 34.963 12.756 35.563 12.756C36.187 12.756 36.715 12.972 37.147 13.404C37.579 13.836 37.795 14.364 37.795 14.988C37.795 15.588 37.579 16.116 37.147 16.572C36.715 17.004 36.187 17.22 35.563 17.22Z" fill="white"/>
<defs>
<linearGradient id="paint0_linear_339_828" x1="25" y1="0" x2="25" y2="50" gradientUnits="userSpaceOnUse">
<stop stop-color="#FF3B3B"/>
<stop offset="1" stop-color="#0E1B48"/>
</linearGradient>
</defs>
</svg>
