<svg width="73" height="72" viewBox="0 0 73 72" fill="none" xmlns="http://www.w3.org/2000/svg">
<g opacity="0.8">
<path fill-rule="evenodd" clip-rule="evenodd" d="M28.1701 15.7212H45.1658C51.43 15.7212 54.918 19.3308 54.918 25.5158V46.4639C54.918 52.7504 51.43 56.2789 45.1658 56.2789H28.1701C22.0054 56.2789 18.416 52.7504 18.416 46.4639V25.5158C18.416 19.3308 22.0054 15.7212 28.1701 15.7212ZM28.718 25.1711V25.1508H34.7793C35.6533 25.1508 36.3631 25.8606 36.3631 26.7306C36.3631 27.6249 35.6533 28.3346 34.7793 28.3346H28.718C27.844 28.3346 27.1362 27.6249 27.1362 26.7529C27.1362 25.8809 27.844 25.1711 28.718 25.1711ZM28.718 37.5007H44.6166C45.4886 37.5007 46.1984 36.7909 46.1984 35.9189C46.1984 35.0469 45.4886 34.3351 44.6166 34.3351H28.718C27.844 34.3351 27.1362 35.0469 27.1362 35.9189C27.1362 36.7909 27.844 37.5007 28.718 37.5007ZM28.7178 46.7681H44.6164C45.4256 46.687 46.0359 45.9955 46.0359 45.1864C46.0359 44.3549 45.4256 43.6655 44.6164 43.5843H28.7178C28.1094 43.5235 27.5213 43.8074 27.1969 44.3347C26.8724 44.8416 26.8724 45.5108 27.1969 46.0381C27.5213 46.5451 28.1094 46.8492 28.7178 46.7681Z" fill="white"/>
</g>
</svg>
