<svg width="73" height="72" viewBox="0 0 73 72" fill="none" xmlns="http://www.w3.org/2000/svg">
<g opacity="0.8">
<path fill-rule="evenodd" clip-rule="evenodd" d="M32.9774 18.4243C31.5803 18.4243 30.3918 19.3951 30.0582 20.7036H41.2764C40.9428 19.3951 39.7542 18.4243 38.3572 18.4243H32.9774ZM44.445 20.7036H48.5737C52.9524 20.7036 56.5182 24.3126 56.5182 28.7446C56.5182 28.7446 56.393 30.6209 56.3513 33.2337C56.3471 33.4405 56.2471 33.6431 56.0824 33.7655C55.0794 34.5063 54.1618 35.1184 54.0784 35.1606C50.6171 37.4821 46.5947 39.1157 42.3097 39.9282C42.0303 39.9831 41.7551 39.8375 41.6133 39.5884C40.4123 37.5075 38.1686 36.1525 35.6664 36.1525C33.1809 36.1525 30.9163 37.4927 29.6797 39.5758C29.5359 39.8206 29.2648 39.962 28.9875 39.9092C24.7379 39.0946 20.7157 37.4631 17.2751 35.1817L15.2732 33.7887C15.1064 33.6832 15.0022 33.4933 15.0022 33.2822C14.9396 32.2059 14.8354 28.7446 14.8354 28.7446C14.8354 24.3126 18.4011 20.7036 22.78 20.7036H26.8877C27.2839 17.6434 29.8487 15.2585 32.9765 15.2585H38.3563C41.484 15.2585 44.0487 17.6434 44.445 20.7036ZM55.8097 37.7989L55.7263 37.8412C51.5142 40.6692 46.4473 42.5476 41.1301 43.3285C40.3794 43.434 39.6287 42.9486 39.4202 42.1888C38.9615 40.4582 37.4809 39.3185 35.7085 39.3185H35.6878H35.646C33.8736 39.3185 32.3931 40.4582 31.9344 42.1888C31.7258 42.9486 30.9753 43.434 30.2245 43.3285C24.9073 42.5476 19.8403 40.6692 15.6282 37.8412C15.6074 37.8201 15.3989 37.6934 15.2321 37.7989C15.0444 37.9045 15.0444 38.1577 15.0444 38.1577L15.1904 48.9213C15.1904 53.3534 18.7352 56.9413 23.114 56.9413H48.2197C52.5985 56.9413 56.1433 53.3534 56.1433 48.9213L56.3102 38.1577C56.3102 38.1577 56.3102 37.9045 56.1225 37.7989C56.0183 37.7356 55.8932 37.7567 55.8097 37.7989ZM37.231 46.6419C37.231 47.5284 36.5429 48.2248 35.6671 48.2248C34.8122 48.2248 34.1034 47.5284 34.1034 46.6419V43.9194C34.1034 43.0541 34.8122 42.3365 35.6671 42.3365C36.5429 42.3365 37.231 43.0541 37.231 43.9194V46.6419Z" fill="black"/>
</g>
</svg>
